<svg width="150" height="150" viewBox="0 0 150 150" fill="none" xmlns="http://www.w3.org/2000/svg">
<g clip-path="url(#clip0_37_2)">
<g filter="url(#filter0_d_37_2)">
<path d="M75.0001 7.67889C104.614 7.67903 128.621 31.6865 128.621 61.301C128.621 90.9152 104.614 114.922 75.0001 114.922C45.3857 114.922 21.3782 90.9153 21.378 61.301C21.378 31.6865 45.3856 7.67889 75.0001 7.67889ZM74.9991 48.7599C68.0734 48.7601 62.4592 54.3742 62.4591 61.3C62.4591 68.2258 68.0733 73.8408 74.9991 73.841C81.9251 73.841 87.5401 68.226 87.5401 61.3C87.54 54.3741 81.925 48.7599 74.9991 48.7599Z" fill="#003049"/>
</g>
<g filter="url(#filter1_d_37_2)">
<path d="M10.9996 55.0287L55.3241 55.0286L72.189 64.326L139 64.3261V143.029H10.9996V55.0287Z" fill="#FDF0D5"/>
</g>
</g>
<defs>
<filter id="filter0_d_37_2" x="17.378" y="7.67889" width="115.243" height="115.243" filterUnits="userSpaceOnUse" color-interpolation-filters="sRGB">
<feFlood flood-opacity="0" result="BackgroundImageFix"/>
<feColorMatrix in="SourceAlpha" type="matrix" values="0 0 0 0 0 0 0 0 0 0 0 0 0 0 0 0 0 0 127 0" result="hardAlpha"/>
<feOffset dy="4"/>
<feGaussianBlur stdDeviation="2"/>
<feComposite in2="hardAlpha" operator="out"/>
<feColorMatrix type="matrix" values="0 0 0 0 0 0 0 0 0 0 0 0 0 0 0 0 0 0 0.25 0"/>
<feBlend mode="normal" in2="BackgroundImageFix" result="effect1_dropShadow_37_2"/>
<feBlend mode="normal" in="SourceGraphic" in2="effect1_dropShadow_37_2" result="shape"/>
</filter>
<filter id="filter1_d_37_2" x="6.99957" y="55.0286" width="136" height="96.0004" filterUnits="userSpaceOnUse" color-interpolation-filters="sRGB">
<feFlood flood-opacity="0" result="BackgroundImageFix"/>
<feColorMatrix in="SourceAlpha" type="matrix" values="0 0 0 0 0 0 0 0 0 0 0 0 0 0 0 0 0 0 127 0" result="hardAlpha"/>
<feOffset dy="4"/>
<feGaussianBlur stdDeviation="2"/>
<feComposite in2="hardAlpha" operator="out"/>
<feColorMatrix type="matrix" values="0 0 0 0 0 0 0 0 0 0 0 0 0 0 0 0 0 0 0.25 0"/>
<feBlend mode="normal" in2="BackgroundImageFix" result="effect1_dropShadow_37_2"/>
<feBlend mode="normal" in="SourceGraphic" in2="effect1_dropShadow_37_2" result="shape"/>
</filter>
<clipPath id="clip0_37_2">
<rect width="150" height="150" fill="white"/>
</clipPath>
</defs>
</svg>
