<svg width="290" height="307" viewBox="0 0 290 307" fill="none" xmlns="http://www.w3.org/2000/svg">
<path d="M145 0C212.095 0 266.487 54.3911 266.487 121.486C266.487 188.582 212.095 242.973 145 242.973C77.905 242.972 23.5137 188.581 23.5137 121.486C23.5137 54.3912 77.905 0.000207637 145 0ZM144.999 93.0732C129.308 93.0735 116.587 105.794 116.587 121.485C116.587 137.177 129.308 149.897 144.999 149.897C160.691 149.897 173.412 137.177 173.412 121.485C173.412 105.794 160.691 93.0732 144.999 93.0732Z" fill="#003049"/>
<path d="M0 107.277L100.422 107.276L138.632 128.341L290 128.341V306.652H0V107.277Z" fill="#FDF0D5"/>
</svg>
