<svg width="74" height="74" viewBox="0 0 74 74" fill="none" xmlns="http://www.w3.org/2000/svg">
<path d="M37 0L43.7184 7.56498L53.0537 3.66415L55.8244 13.3949L65.9278 13.9309L64.202 23.9002L73.0723 28.7667L67.192 37L73.0723 45.2333L64.202 50.0998L65.9278 60.0691L55.8244 60.6051L53.0537 70.3358L43.7184 66.435L37 74L30.2816 66.435L20.9463 70.3358L18.1756 60.6051L8.07224 60.0691L9.79795 50.0998L0.927666 45.2333L6.808 37L0.927666 28.7667L9.79795 23.9002L8.07224 13.9309L18.1756 13.3949L20.9463 3.66415L30.2816 7.56498L37 0Z" fill="#669BBC"/>
<circle cx="37.0003" cy="37.0001" r="22.2" fill="#FDF0D5"/>
<mask id="mask0_37_14" style="mask-type:alpha" maskUnits="userSpaceOnUse" x="19" y="19" width="36" height="36">
<rect x="19.2399" y="19.2401" width="35.52" height="35.52" fill="#D9D9D9"/>
</mask>
<g mask="url(#mask0_37_14)">
<path d="M27.6021 45.0661C29.0574 44.0219 30.5538 43.2141 32.0913 42.6426C33.629 42.071 35.2653 41.7853 37.0001 41.7853C38.7349 41.7853 40.3752 42.071 41.9211 42.6426C43.4669 43.2141 44.9675 44.0219 46.4229 45.0661C47.4342 43.8409 48.1721 42.5623 48.6366 41.2303C49.1011 39.8983 49.3333 38.4882 49.3333 37.0001C49.3333 33.5221 48.1473 30.597 45.7754 28.2248C43.4032 25.8528 40.4781 24.6669 37.0001 24.6669C33.5221 24.6669 30.597 25.8528 28.2248 28.2248C25.8528 30.597 24.6669 33.5221 24.6669 37.0001C24.6669 38.4882 24.9032 39.8983 25.3758 41.2303C25.8486 42.5623 26.5907 43.8409 27.6021 45.0661ZM36.9956 38.2333C35.5598 38.2333 34.3505 37.7406 33.3678 36.7551C32.3853 35.7695 31.8941 34.5587 31.8941 33.1228C31.8941 31.687 32.3869 30.4778 33.3726 29.4954C34.358 28.5126 35.5687 28.0213 37.0045 28.0213C38.4404 28.0213 39.6496 28.5141 40.6324 29.4998C41.6148 30.4855 42.1061 31.6962 42.1061 33.1321C42.1061 34.5679 41.6132 35.7771 40.6276 36.7596C39.6421 37.742 38.4315 38.2333 36.9956 38.2333ZM37.0115 51.8001C34.9731 51.8001 33.0535 51.4116 31.2529 50.6346C29.4522 49.8576 27.8817 48.799 26.5413 47.4589C25.2011 46.1185 24.1426 44.5499 23.3656 42.7532C22.5886 40.9565 22.2001 39.0366 22.2001 36.9934C22.2001 34.9505 22.5886 33.0328 23.3656 31.2403C24.1426 29.448 25.2011 27.8817 26.5413 26.5413C27.8817 25.2011 29.4502 24.1426 31.2469 23.3656C33.0437 22.5886 34.9636 22.2001 37.0067 22.2001C39.0496 22.2001 40.9673 22.5886 42.7599 23.3656C44.5521 24.1426 46.1185 25.2011 47.4589 26.5413C48.799 27.8817 49.8576 29.4483 50.6346 31.241C51.4116 33.034 51.8001 34.9499 51.8001 36.9886C51.8001 39.0271 51.4116 40.9466 50.6346 42.7473C49.8576 44.548 48.799 46.1185 47.4589 47.4589C46.1185 48.799 44.5519 49.8576 42.7591 50.6346C40.9661 51.4116 39.0502 51.8001 37.0115 51.8001ZM37.0001 49.3333C38.3402 49.3333 39.6352 49.1381 40.8851 48.7476C42.1349 48.3571 43.3395 47.7137 44.4989 46.8173C43.3395 45.987 42.1309 45.3518 40.8729 44.9118C39.6149 44.472 38.3239 44.2521 37.0001 44.2521C35.6762 44.2521 34.3853 44.472 33.1273 44.9118C31.8693 45.3518 30.6606 45.987 29.5013 46.8173C30.6606 47.7137 31.8652 48.3571 33.1151 48.7476C34.3649 49.1381 35.6599 49.3333 37.0001 49.3333ZM37.0001 35.7669C37.7729 35.7669 38.406 35.5202 38.8993 35.0269C39.3926 34.5335 39.6393 33.9003 39.6393 33.1273C39.6393 32.3545 39.3926 31.7214 38.8993 31.2281C38.406 30.7347 37.7729 30.4881 37.0001 30.4881C36.2273 30.4881 35.5942 30.7347 35.1009 31.2281C34.6075 31.7214 34.3609 32.3545 34.3609 33.1273C34.3609 33.9003 34.6075 34.5335 35.1009 35.0269C35.5942 35.5202 36.2273 35.7669 37.0001 35.7669Z" fill="#669BBC"/>
</g>
</svg>
